Coordinates
version=1
nRows=7
nColumns=40
inDegrees=yes

Units are S.I. units (second, meters, Newtons, ...)
Angles are in degrees.

endheader
time	pelvis_tilt	pelvis_list	pelvis_rotation	pelvis_tx	pelvis_ty	pelvis_tz	hip_flexion_r	hip_adduction_r	hip_rotation_r	knee_angle_r	knee_angle_r_beta	ankle_angle_r	subtalar_angle_r	mtp_angle_r	hip_flexion_l	hip_adduction_l	hip_rotation_l	knee_angle_l	knee_angle_l_beta	ankle_angle_l	subtalar_angle_l	mtp_angle_l	lumbar_extension	lumbar_bending	lumbar_rotation	arm_flex_r	arm_add_r	arm_rot_r	elbow_flex_r	pro_sup_r	wrist_flex_r	wrist_dev_r	arm_flex_l	arm_add_l	arm_rot_l	elbow_flex_l	pro_sup_l	wrist_flex_l	wrist_dev_l
     48.10000000	     -4.54995314	     -3.96048670	      1.18987497	      1.07676657	      0.91355413	      0.56933631	     17.10693103	      5.54049545	     -8.50733455	     30.03489824	     30.03489824	     18.19128985	     -7.62374555	     -0.44398459	     31.21018628	    -16.51802420	      2.32503624	     70.11534265	     70.11534265	     12.40299659	    -18.73460884	     11.62802661	    -10.34812856	      5.25756479	      0.89015938	     17.32770655	    -21.32161714	     -4.62204824	     64.82059750	     44.35112025	      0.00000000	      0.00000000	     -3.69084264	     -9.71878474	     13.75086973	     27.39525585	     43.99600582	      0.00000000	      0.00000000
     48.12050000	     -4.32691629	     -4.02375541	      1.64300446	      1.07584773	      0.91186513	      0.57000809	     17.06016808	      5.63765183	     -8.58001629	     30.81998546	     30.81998546	     18.73947487	     -8.29220038	     -0.46788067	     32.20272466	    -16.39030532	      3.03942402	     70.95799203	     70.95799203	     12.22136946	    -18.58257031	     11.65867040	    -10.49228090	      5.43687903	      1.16560369	     19.72223972	    -20.96102067	     -4.85021158	     65.75057748	     44.35599338	      0.00000000	      0.00000000	     -5.71858112	     -9.13392369	     14.24927937	     26.76112628	     43.90569194	      0.00000000	      0.00000000
     48.14100000	     -3.99727747	     -4.16029828	      2.12052869	      1.07485568	      0.91033970	      0.57058484	     16.84075376	      5.77652156	     -8.82823884	     31.50845758	     31.50845758	     19.27011617	     -8.67445202	     -0.61346176	     33.04711036	    -16.35713541	      3.72931581	     71.49034475	     71.49034475	     12.03743443	    -18.44147629	     11.54385300	    -10.81609430	      5.70968190	      1.92926986	     22.02576979	    -21.09370089	     -5.14158433	     66.51042869	     44.35890862	      0.00000000	      0.00000000	     -7.54415013	     -8.56117753	     14.60690808	     26.50019640	     43.82432915	      0.00000000	      0.00000000
     48.16150000	     -3.74638300	     -4.25904809	      2.68059174	      1.07378869	      0.90882998	      0.57107137	     16.69323242	      5.90283799	     -9.02346205	     32.18049021	     32.18049021	     20.02675818	     -9.13479032	      0.08205415	     33.89198918	    -16.29066266	      4.36085398	     71.52075507	     71.52075507	     11.64501804	    -18.31611882	     10.91076874	    -10.97715860	      5.94051860	      1.01822222	     26.12232487	    -19.75877135	     -4.55605337	     65.22590876	     44.48165666	      0.00000000	      0.00000000	    -11.38027830	     -9.10222343	     17.74375617	     29.80001231	     43.30715357	      0.00000000	      0.00000000
     48.18200000	     -3.52910438	     -4.27581926	      3.26884265	      1.07262539	      0.90762880	      0.57122845	     16.47444686	      5.92682089	     -9.24159013	     32.62258573	     32.62258573	     20.46539480	     -9.63537452	      0.02736529	     34.63973493	    -16.09351502	      4.88977532	     71.00295368	     71.00295368	     11.42518856	    -18.28188473	     10.86104144	    -11.17899624	      6.10386686	      1.31619434	     28.54444814	    -19.56170174	     -4.66333849	     66.34303896	     44.47743944	      0.00000000	      0.00000000	    -13.27973691	     -8.69669101	     18.84651313	     29.69096747	     43.14997245	      0.00000000	      0.00000000
     48.20250000	     -3.39048985	     -4.29023981	      3.87114933	      1.07133906	      0.90679320	      0.57118989	     16.25016263	      5.92787493	     -9.54085628	     32.86493449	     32.86493449	     20.78941993	    -10.03604405	     -0.03459061	     35.28722628	    -15.90542690	      5.27565321	     69.78658485	     69.78658485	     11.31981962	    -18.27005908	     10.93134132	    -11.33039544	      6.19886353	      2.09097155	     30.69666515	    -19.92179488	     -4.92727113	     67.01814986	     44.47951074	      0.00000000	      0.00000000	    -14.73057092	     -8.34344080	     19.28386486	     29.56366654	     43.07318854	      0.00000000	      0.00000000
     48.22300000	     -3.26915527	     -4.23927797	      4.56679361	      1.06991457	      0.90640888	      0.57084212	     15.94839123	      5.89233055	     -9.74543909	     32.90460855	     32.90460855	     21.06194586	    -10.60870187	      0.16970537	     35.72951998	    -15.65723803	      5.49172438	     67.76649143	     67.76649143	     10.70087076	    -18.36545320	      9.75365774	    -11.41806015	      6.27685860	      1.46998369	     34.21203646	    -18.92117316	     -4.44867406	     65.93005849	     44.60269086	      0.00000000	      0.00000000	    -17.58918436	     -9.48175560	     24.71373635	     33.34648745	     42.38734799	      0.00000000	      0.00000000
